<svg width="100" height="100" viewBox="0 0 100 100" fill="none" xmlns="http://www.w3.org/2000/svg">
<path d="M99.5 63.6667L87 40.7084C86.3168 39.4477 85.3057 38.395 84.0735 37.6615C82.8414 36.9281 81.4339 36.5412 80 36.5417H70.8333C69.7283 36.5417 68.6684 36.9807 67.887 37.7621C67.1056 38.5435 66.6667 39.6033 66.6667 40.7084C66.6667 41.8135 67.1056 42.8733 67.887 43.6547C68.6684 44.4361 69.7283 44.8751 70.8333 44.8751H79.1667C79.3532 44.8788 79.5355 44.9306 79.6961 45.0255C79.8567 45.1204 79.9901 45.2552 80.0833 45.4167L89.125 62.0834C89.2164 62.2417 89.2646 62.4214 89.2646 62.6042C89.2646 62.7871 89.2164 62.9667 89.125 63.1251C89.0365 63.2784 88.9088 63.4055 88.7551 63.4934C88.6014 63.5812 88.4271 63.6267 88.25 63.6251H72.9167C71.2591 63.6251 69.6694 64.2835 68.4973 65.4557C67.3251 66.6278 66.6667 68.2175 66.6667 69.8751C66.6667 71.5327 66.0082 73.1224 64.8361 74.2945C63.664 75.4666 62.0743 76.1251 60.4167 76.1251H39.5833C38.7555 76.1251 37.9359 75.9608 37.1722 75.6415C36.4084 75.3222 35.7157 74.8543 35.1342 74.2651C34.5527 73.6759 34.0941 72.977 33.785 72.2091C33.4758 71.4412 33.3223 70.6195 33.3333 69.7917C33.3333 68.1341 32.6749 66.5444 31.5028 65.3723C30.3306 64.2002 28.7409 63.5417 27.0833 63.5417H11.6667C11.4912 63.5355 11.3199 63.4868 11.1675 63.3997C11.0151 63.3126 10.8861 63.1897 10.7917 63.0417C10.7002 62.8834 10.6521 62.7038 10.6521 62.5209C10.6521 62.3381 10.7002 62.1584 10.7917 62.0001L19.5 45.3334C19.5863 45.1659 19.7181 45.0263 19.8802 44.9304C20.0424 44.8346 20.2284 44.7865 20.4167 44.7917H27.0833C28.1884 44.7917 29.2482 44.3527 30.0296 43.5713C30.811 42.7899 31.25 41.7301 31.25 40.6251C31.25 39.52 30.811 38.4602 30.0296 37.6788C29.2482 36.8974 28.1884 36.4584 27.0833 36.4584H19.75C18.3161 36.4579 16.9086 36.8448 15.6765 37.5782C14.4443 38.3116 13.4332 39.3643 12.75 40.6251L0.5 63.6667C0.220653 64.2854 0.051447 64.9482 0 65.6251V90.6251C0 92.2827 0.65848 93.8724 1.83058 95.0445C3.00268 96.2166 4.5924 96.8751 6.25 96.8751H93.75C95.4076 96.8751 96.9973 96.2166 98.1694 95.0445C99.3415 93.8724 100 92.2827 100 90.6251V65.6251C99.9684 64.9451 99.7982 64.2787 99.5 63.6667Z" fill="white"/>
<path d="M63.9583 19.6667L52.5 4.37507C52.2112 3.98453 51.8342 3.66774 51.3998 3.45052C50.9653 3.23329 50.4857 3.12178 50 3.12507C49.5149 3.12507 49.0364 3.23802 48.6025 3.45499C48.1685 3.67195 47.7911 3.98696 47.5 4.37507L36.0417 19.6667C35.6939 20.1269 35.4822 20.6755 35.4307 21.25C35.3791 21.8245 35.4897 22.402 35.75 22.9167C36.0061 23.4395 36.4032 23.8803 36.8965 24.1895C37.3897 24.4987 37.9595 24.664 38.5417 24.6667H42.7083C42.9846 24.6667 43.2496 24.7765 43.4449 24.9718C43.6403 25.1672 43.75 25.4321 43.75 25.7084V41.3334C43.75 42.991 44.4085 44.5807 45.5806 45.7528C46.7527 46.9249 48.3424 47.5834 50 47.5834C51.6576 47.5834 53.2473 46.9249 54.4194 45.7528C55.5915 44.5807 56.25 42.991 56.25 41.3334V25.7084C56.25 25.4321 56.3597 25.1672 56.5551 24.9718C56.7504 24.7765 57.0154 24.6667 57.2917 24.6667H61.4583C62.0387 24.6667 62.6076 24.5051 63.1012 24.2C63.5949 23.8949 63.9939 23.4584 64.2534 22.9393C64.513 22.4202 64.6228 21.8391 64.5707 21.2611C64.5186 20.6831 64.3065 20.131 63.9583 19.6667Z" fill="white"/>
</svg>
