<svg width="328" height="41" viewBox="0 0 328 41" fill="none" xmlns="http://www.w3.org/2000/svg">
<rect width="328" height="41" rx="10" fill="#FEE500"/>
<g clip-path="url(#clip0_135_825)">
<path fill-rule="evenodd" clip-rule="evenodd" d="M34.0001 11.1666C28.4769 11.1666 24 14.6255 24 18.8914C24 21.5445 25.7316 23.8833 28.3684 25.2744L27.2589 29.3272C27.1609 29.6854 27.5705 29.9708 27.885 29.7633L32.7482 26.5536C33.1586 26.5932 33.5757 26.6163 34.0001 26.6163C39.5228 26.6163 44 23.1576 44 18.8914C44 14.6255 39.5228 11.1666 34.0001 11.1666Z" fill="black"/>
</g>
<path d="M129.355 15.1562C129.355 19.4219 128.184 23.0781 122.98 25.6719L122.027 24.3594C124.473 23.1484 125.926 21.7422 126.746 20.0625L122.355 20.4844L122.137 18.9844L127.277 18.6562C127.457 18 127.566 17.3047 127.621 16.5625H122.871V15.1562H129.355ZM133.074 13.7656V19.2969H135.168V20.7188H133.074V27.8594H131.34V13.7656H133.074ZM143.184 15.1562C143.184 19.4219 142.012 23.0781 136.809 25.6719L135.855 24.3594C138.301 23.1484 139.754 21.7422 140.574 20.0625L136.184 20.4844L135.965 18.9844L141.105 18.6562C141.285 18 141.395 17.3047 141.449 16.5625H136.699V15.1562H143.184ZM146.902 13.7656V19.2969H148.996V20.7188H146.902V27.8594H145.168V13.7656H146.902ZM156.09 14.5625C159.121 14.5625 161.355 16.0781 161.355 18.375C161.355 20.4922 159.535 21.9062 156.949 22.1562V24.75H162.574V26.1719H149.668V24.75H155.23V22.1562C152.66 21.9062 150.84 20.4922 150.855 18.375C150.84 16.0781 153.074 14.5625 156.09 14.5625ZM156.09 15.9688C154.027 15.9531 152.543 16.8906 152.559 18.375C152.543 19.9062 154.027 20.8125 156.09 20.8125C158.184 20.8125 159.652 19.9062 159.652 18.375C159.652 16.8906 158.184 15.9531 156.09 15.9688ZM180.199 24.8125V26.25H167.293V24.8125H172.855V22.5156H168.824V17.8906H176.949V16.1406H168.793V14.7344H178.668V19.2656H170.559V21.0938H178.996V22.5156H174.574V24.8125H180.199ZM192.355 15.1406V16.7344C192.355 18.625 192.355 20.5781 191.84 23.5469L190.074 23.3906C190.621 20.6094 190.621 18.5625 190.621 16.7344V16.5469H182.48V15.1406H192.355ZM193.996 24.5312V25.9531H181.121V24.5312H193.996ZM206.715 13.7812V23.9844H204.965V13.7812H206.715ZM207.105 26.2031V27.6094H197.371V22.9531H199.121V26.2031H207.105ZM199.012 14.7031C201.152 14.7031 202.809 16.1875 202.809 18.2344C202.809 20.3281 201.152 21.7812 199.012 21.7812C196.855 21.7812 195.199 20.3281 195.199 18.2344C195.199 16.1875 196.855 14.7031 199.012 14.7031ZM199.012 16.2188C197.809 16.2188 196.887 17.0156 196.902 18.2344C196.887 19.4844 197.809 20.2656 199.012 20.2656C200.184 20.2656 201.105 19.4844 201.105 18.2344C201.105 17.0156 200.184 16.2188 199.012 16.2188Z" fill="black" fill-opacity="0.85"/>
<defs>
<clipPath id="clip0_135_825">
<rect width="20" height="20.0001" fill="white" transform="translate(24 10.4999)"/>
</clipPath>
</defs>
</svg>
